<svg id="Layer_1" data-name="Layer 1" xmlns="http://www.w3.org/2000/svg" viewBox="0 0 24 24"><defs><style>.cls-1{fill:#333132;}</style></defs><path class="cls-1" d="M16.88,22.05H7.18A3.11,3.11,0,0,1,4.07,19V4.15a.51.51,0,0,1,.5-.5.5.5,0,0,1,.5.5V19a2.11,2.11,0,0,0,2.11,2.1h9.7A2.1,2.1,0,0,0,19,19V4.15a.5.5,0,1,1,1,0V19A3.1,3.1,0,0,1,16.88,22.05Z"/><path class="cls-1" d="M8.48,17.57a.5.5,0,0,1-.5-.5V8.55a.5.5,0,0,1,.5-.5.5.5,0,0,1,.5.5v8.52A.5.5,0,0,1,8.48,17.57Z"/><path class="cls-1" d="M15.57,17.66a.5.5,0,0,1-.5-.5V8.64a.5.5,0,0,1,.5-.5.5.5,0,0,1,.5.5v8.52A.5.5,0,0,1,15.57,17.66Z"/><path class="cls-1" d="M12,17.66a.5.5,0,0,1-.5-.5V8.64a.5.5,0,0,1,.5-.5.5.5,0,0,1,.5.5v8.52A.5.5,0,0,1,12,17.66Z"/><path class="cls-1" d="M21.07,4.65H14.62a.48.48,0,0,1-.48-.37L13.79,3H10.25L9.92,4.28a.5.5,0,0,1-.49.37H2.93a.5.5,0,0,1-.5-.5.51.51,0,0,1,.5-.5H9l.34-1.33A.48.48,0,0,1,9.86,2h4.32a.48.48,0,0,1,.48.37L15,3.65h6.06a.51.51,0,0,1,.5.5A.5.5,0,0,1,21.07,4.65Z"/></svg>